<svg width="18" height="13" viewBox="0 0 18 13" fill="none" xmlns="http://www.w3.org/2000/svg">
<path d="M11.4286 7C11.4286 7.15179 11.3036 7.28571 11.1429 7.28571H9.14286V10.4286C9.14286 10.5804 9.00893 10.7143 8.85714 10.7143H7.14286C6.99107 10.7143 6.85714 10.5804 6.85714 10.4286V7.28571H4.85714C4.69643 7.28571 4.57143 7.16071 4.57143 7C4.57143 6.91964 4.60714 6.84821 4.66071 6.78571L7.79464 3.65178C7.84821 3.59821 7.92857 3.57143 8 3.57143C8.08036 3.57143 8.15179 3.59821 8.20536 3.65178L11.3482 6.79464C11.4018 6.84821 11.4286 6.92857 11.4286 7ZM17.1429 9.57143C17.1429 7.98214 16.0446 6.59821 14.4911 6.23214C14.7321 5.86607 14.8571 5.4375 14.8571 5C14.8571 3.74107 13.8304 2.71428 12.5714 2.71428C12.0268 2.71428 11.5 2.91071 11.0893 3.26786C10.3839 1.55357 8.71429 0.428571 6.85714 0.428571C4.33036 0.428571 2.28571 2.47321 2.28571 5C2.28571 5.125 2.29464 5.25 2.30357 5.38393C0.901786 6.03571 0 7.44643 0 9C0 11.2054 1.79464 13 4 13H13.7143C15.6071 13 17.1429 11.4643 17.1429 9.57143Z" fill="#FF8B38"/>
</svg>
